<svg width="332" height="71" viewBox="0 0 332 71" fill="none" xmlns="http://www.w3.org/2000/svg">
<path d="M105.196 14.3584H100.158V10.6241H105.196C105.882 10.6241 106.439 10.5093 106.866 10.2796C107.292 10.05 107.603 9.73303 107.798 9.32882C108.002 8.91543 108.104 8.45152 108.104 7.93708C108.104 7.38589 108.002 6.87605 107.798 6.40754C107.603 5.93903 107.292 5.56239 106.866 5.27761C106.439 4.98364 105.882 4.83666 105.196 4.83666H101.995V21.1655H97.1109V1.10237H105.196C106.819 1.10237 108.216 1.39634 109.384 1.98427C110.563 2.5722 111.467 3.38061 112.098 4.40949C112.729 5.42918 113.044 6.59586 113.044 7.90952C113.044 9.20481 112.729 10.3347 112.098 11.2993C111.467 12.2639 110.563 13.0172 109.384 13.5592C108.216 14.092 106.819 14.3584 105.196 14.3584Z" fill="white"/>
<path d="M121.469 0V21.1655H116.779V0H121.469ZM120.912 13.2009L119.813 13.2285C119.813 12.1812 119.943 11.2166 120.202 10.3347C120.462 9.45284 120.833 8.68577 121.316 8.03354C121.798 7.3813 122.378 6.87605 123.055 6.51778C123.732 6.1595 124.484 5.98037 125.309 5.98037C126.052 5.98037 126.729 6.08601 127.341 6.2973C127.963 6.50859 128.496 6.84849 128.941 7.317C129.396 7.7855 129.744 8.3964 129.985 9.14969C130.236 9.90298 130.361 10.8216 130.361 11.9056V21.1655H125.643V11.8781C125.643 11.2718 125.555 10.8032 125.379 10.4725C125.212 10.1326 124.971 9.89838 124.655 9.76977C124.34 9.63198 123.955 9.56308 123.5 9.56308C122.953 9.56308 122.508 9.65494 122.164 9.83867C121.821 10.0224 121.557 10.2796 121.371 10.6103C121.195 10.9319 121.074 11.3131 121.01 11.754C120.945 12.195 120.912 12.6773 120.912 13.2009Z" fill="white"/>
<path d="M142.208 17.4175V11.2718C142.208 10.8492 142.148 10.4863 142.028 10.1832C141.907 9.88001 141.717 9.64576 141.457 9.4804C141.197 9.30586 140.849 9.21859 140.413 9.21859C140.061 9.21859 139.759 9.2783 139.509 9.39772C139.258 9.51715 139.068 9.69628 138.938 9.93513C138.808 10.174 138.744 10.4771 138.744 10.8446H134.054C134.054 10.1556 134.207 9.51715 134.513 8.92921C134.829 8.3321 135.274 7.81306 135.849 7.37211C136.434 6.93117 137.129 6.59127 137.936 6.35242C138.753 6.10439 139.662 5.98037 140.664 5.98037C141.861 5.98037 142.927 6.17788 143.864 6.57289C144.811 6.96791 145.558 7.56044 146.105 8.35047C146.652 9.13132 146.926 10.1143 146.926 11.2993V17.4037C146.926 18.3775 146.982 19.117 147.093 19.6222C147.204 20.1183 147.362 20.5546 147.566 20.9313V21.1655H142.863C142.64 20.7062 142.473 20.1459 142.362 19.4844C142.26 18.8138 142.208 18.1248 142.208 17.4175ZM142.779 12.0572L142.807 14.5375H140.733C140.297 14.5375 139.926 14.5972 139.62 14.7167C139.323 14.8361 139.082 15.0014 138.897 15.2127C138.72 15.4148 138.59 15.6445 138.507 15.9017C138.433 16.1589 138.396 16.4299 138.396 16.7147C138.396 16.9903 138.461 17.2383 138.59 17.4588C138.73 17.6701 138.915 17.8355 139.147 17.9549C139.379 18.0743 139.639 18.134 139.926 18.134C140.446 18.134 140.887 18.0376 141.248 17.8447C141.619 17.6425 141.902 17.3991 142.097 17.1143C142.292 16.8295 142.389 16.5631 142.389 16.3151L143.419 18.2167C143.234 18.5842 143.02 18.9562 142.779 19.3329C142.547 19.7095 142.255 20.0586 141.902 20.3801C141.559 20.6924 141.137 20.9497 140.636 21.1518C140.135 21.3447 139.527 21.4411 138.813 21.4411C137.885 21.4411 137.032 21.2528 136.253 20.8762C135.483 20.4995 134.866 19.9759 134.402 19.3053C133.938 18.6255 133.706 17.8447 133.706 16.9628C133.706 16.1911 133.845 15.5021 134.124 14.8958C134.411 14.2895 134.843 13.7751 135.418 13.3525C135.993 12.9299 136.726 12.6084 137.616 12.3879C138.507 12.1674 139.555 12.0572 140.761 12.0572H142.779Z" fill="white"/>
<path d="M155.684 9.94891V21.1655H150.995V6.25596H155.378L155.684 9.94891ZM160.137 6.14572L160.054 10.4588C159.868 10.4404 159.618 10.4174 159.302 10.3899C158.987 10.3623 158.723 10.3485 158.509 10.3485C157.962 10.3485 157.489 10.4128 157.09 10.5414C156.7 10.6609 156.375 10.8446 156.116 11.0926C155.865 11.3315 155.68 11.6346 155.559 12.0021C155.448 12.3695 155.397 12.7967 155.406 13.2836L154.557 12.7324C154.557 11.7311 154.655 10.8216 154.849 10.004C155.053 9.17725 155.341 8.4653 155.712 7.86818C156.083 7.26188 156.533 6.79796 157.062 6.47644C157.591 6.14572 158.184 5.98037 158.843 5.98037C159.075 5.98037 159.302 5.99415 159.525 6.02171C159.757 6.04927 159.961 6.09061 160.137 6.14572Z" fill="white"/>
<path d="M167.908 9.4115V21.1655H163.218V6.25596H167.616L167.908 9.4115ZM167.337 13.2009L166.266 13.2285C166.266 12.1812 166.391 11.2166 166.641 10.3347C166.892 9.45284 167.263 8.68577 167.755 8.03354C168.246 7.3813 168.849 6.87605 169.564 6.51778C170.287 6.1595 171.122 5.98037 172.069 5.98037C172.727 5.98037 173.326 6.08142 173.864 6.28352C174.402 6.47644 174.866 6.78418 175.255 7.20676C175.645 7.62015 175.942 8.16215 176.146 8.83276C176.359 9.49418 176.466 10.2888 176.466 11.2166V21.1655H171.776V11.8092C171.776 11.1753 171.702 10.6976 171.554 10.3761C171.415 10.0546 171.21 9.83867 170.941 9.72843C170.672 9.6182 170.343 9.56308 169.953 9.56308C169.545 9.56308 169.179 9.65494 168.854 9.83867C168.529 10.0224 168.251 10.2796 168.019 10.6103C167.796 10.9319 167.625 11.3131 167.504 11.754C167.393 12.195 167.337 12.6773 167.337 13.2009ZM175.937 13.2009L174.629 13.2285C174.629 12.1812 174.745 11.2166 174.977 10.3347C175.218 9.45284 175.575 8.68577 176.048 8.03354C176.531 7.3813 177.129 6.87605 177.844 6.51778C178.558 6.1595 179.388 5.98037 180.334 5.98037C181.021 5.98037 181.652 6.08142 182.227 6.28352C182.802 6.48562 183.298 6.81174 183.716 7.26188C184.133 7.71201 184.458 8.30913 184.69 9.05323C184.922 9.78815 185.038 10.6976 185.038 11.7816V21.1655H180.334V11.7816C180.334 11.1661 180.26 10.7022 180.112 10.3899C179.973 10.0683 179.768 9.85245 179.499 9.74221C179.23 9.62279 178.91 9.56308 178.539 9.56308C178.094 9.56308 177.709 9.65494 177.384 9.83867C177.06 10.0224 176.786 10.2796 176.563 10.6103C176.35 10.9319 176.192 11.3131 176.09 11.754C175.988 12.195 175.937 12.6773 175.937 13.2009Z" fill="white"/>
<path d="M196.969 17.4175V11.2718C196.969 10.8492 196.909 10.4863 196.788 10.1832C196.668 9.88001 196.477 9.64576 196.218 9.4804C195.958 9.30586 195.61 9.21859 195.174 9.21859C194.821 9.21859 194.52 9.2783 194.269 9.39772C194.019 9.51715 193.829 9.69628 193.699 9.93513C193.569 10.174 193.504 10.4771 193.504 10.8446H188.815C188.815 10.1556 188.968 9.51715 189.274 8.92921C189.589 8.3321 190.034 7.81306 190.61 7.37211C191.194 6.93117 191.89 6.59127 192.697 6.35242C193.513 6.10439 194.423 5.98037 195.424 5.98037C196.621 5.98037 197.688 6.17788 198.625 6.57289C199.571 6.96791 200.318 7.56044 200.865 8.35047C201.413 9.13132 201.686 10.1143 201.686 11.2993V17.4037C201.686 18.3775 201.742 19.117 201.853 19.6222C201.965 20.1183 202.122 20.5546 202.327 20.9313V21.1655H197.623C197.4 20.7062 197.233 20.1459 197.122 19.4844C197.02 18.8138 196.969 18.1248 196.969 17.4175ZM197.54 12.0572L197.567 14.5375H195.494C195.058 14.5375 194.687 14.5972 194.381 14.7167C194.084 14.8361 193.843 15.0014 193.657 15.2127C193.481 15.4148 193.351 15.6445 193.268 15.9017C193.193 16.1589 193.156 16.4299 193.156 16.7147C193.156 16.9903 193.221 17.2383 193.351 17.4588C193.49 17.6701 193.676 17.8355 193.908 17.9549C194.14 18.0743 194.399 18.134 194.687 18.134C195.206 18.134 195.647 18.0376 196.009 17.8447C196.38 17.6425 196.663 17.3991 196.858 17.1143C197.053 16.8295 197.15 16.5631 197.15 16.3151L198.18 18.2167C197.994 18.5842 197.781 18.9562 197.54 19.3329C197.308 19.7095 197.015 20.0586 196.663 20.3801C196.32 20.6924 195.898 20.9497 195.397 21.1518C194.896 21.3447 194.288 21.4411 193.574 21.4411C192.646 21.4411 191.792 21.2528 191.013 20.8762C190.243 20.4995 189.626 19.9759 189.162 19.3053C188.699 18.6255 188.467 17.8447 188.467 16.9628C188.467 16.1911 188.606 15.5021 188.884 14.8958C189.172 14.2895 189.603 13.7751 190.178 13.3525C190.753 12.9299 191.486 12.6084 192.377 12.3879C193.268 12.1674 194.316 12.0572 195.522 12.0572H197.54Z" fill="white"/>
<path d="M212.073 17.8584C212.509 17.8584 212.88 17.7803 213.186 17.6242C213.502 17.4588 213.738 17.2292 213.896 16.9352C214.063 16.632 214.142 16.2692 214.133 15.8466H218.544C218.553 16.9673 218.275 17.9503 217.709 18.7954C217.152 19.6314 216.391 20.2836 215.427 20.7522C214.471 21.2115 213.39 21.4411 212.184 21.4411C211.006 21.4411 209.976 21.2528 209.095 20.8762C208.214 20.4903 207.476 19.9575 206.883 19.2777C206.298 18.5888 205.857 17.7849 205.561 16.8663C205.273 15.9477 205.129 14.9509 205.129 13.8761V13.5592C205.129 12.4844 205.273 11.4876 205.561 10.569C205.857 9.64116 206.298 8.83735 206.883 8.15755C207.476 7.46857 208.209 6.93576 209.081 6.55911C209.963 6.17328 210.988 5.98037 212.157 5.98037C213.409 5.98037 214.513 6.21462 215.468 6.68313C216.433 7.15164 217.189 7.83144 217.737 8.72252C218.284 9.6136 218.553 10.693 218.544 11.9607H214.133C214.142 11.5106 214.072 11.1064 213.924 10.7481C213.775 10.3899 213.543 10.1051 213.228 9.89379C212.922 9.67332 212.528 9.56308 212.045 9.56308C211.563 9.56308 211.173 9.66872 210.876 9.88001C210.579 10.0913 210.352 10.3853 210.194 10.7619C210.046 11.1294 209.944 11.5519 209.888 12.0296C209.842 12.5073 209.819 13.0172 209.819 13.5592V13.8761C209.819 14.4273 209.842 14.9463 209.888 15.4332C209.944 15.9109 210.051 16.3335 210.208 16.7009C210.366 17.0592 210.593 17.344 210.89 17.5553C211.187 17.7574 211.581 17.8584 212.073 17.8584Z" fill="white"/>
<path d="M226.593 19.4155L230.489 6.25596H235.526L229.473 23.3841C229.343 23.7607 229.172 24.1649 228.958 24.5967C228.745 25.0376 228.453 25.4556 228.082 25.8506C227.71 26.2456 227.233 26.5672 226.648 26.8152C226.073 27.0632 225.359 27.1873 224.505 27.1873C224.051 27.1873 223.717 27.1643 223.503 27.1184C223.299 27.0816 222.984 27.0127 222.557 26.9117V23.5908C222.678 23.5908 222.78 23.5908 222.863 23.5908C222.956 23.5908 223.058 23.5908 223.169 23.5908C223.67 23.5908 224.069 23.5402 224.366 23.4392C224.672 23.3381 224.904 23.1912 225.062 22.9982C225.229 22.8053 225.359 22.5711 225.451 22.2955L226.593 19.4155ZM225.605 6.25596L228.569 16.6872L229.083 21.6065H225.939L220.581 6.25596H225.605Z" fill="white"/>
<path d="M0 38.0322V35.6035C0 34.8973 0.234825 34.3117 0.704476 33.8466C1.19152 33.3815 1.77424 33.149 2.45262 33.149H32.9277C33.6061 33.149 34.1801 33.3815 34.6498 33.8466C35.1368 34.3117 35.3804 34.8973 35.3804 35.6035V38.4972C35.3804 39.2035 35.2238 39.8838 34.9107 40.5384C34.615 41.1929 34.3367 41.658 34.0758 41.9335L32.9277 43.0962L12.3936 62.8872H33.1886C33.9018 62.8872 34.4845 63.1198 34.9368 63.5848C35.4064 64.0499 35.6413 64.6355 35.6413 65.3417V67.7704C35.6413 68.4766 35.4064 69.0622 34.9368 69.5273C34.4845 69.9751 33.9018 70.1991 33.1886 70.1991H2.89618C2.21779 70.1991 1.63508 69.9751 1.14804 69.5273C0.678384 69.0622 0.443559 68.4766 0.443559 67.7704V64.9025C0.443559 63.2489 1.2611 61.6126 2.89618 59.9935L22.7781 40.4608H2.45262C1.77424 40.4608 1.19152 40.2369 0.704476 39.7891C0.234825 39.324 0 38.7384 0 38.0322Z" fill="white"/>
<path d="M43.3749 67.8221V35.6552C43.3749 34.949 43.6184 34.3547 44.1054 33.8725C44.5925 33.3902 45.1752 33.149 45.8536 33.149H60.4388C67.988 33.149 73.476 34.6476 76.9027 37.6446C80.3468 40.6245 82.0688 45.3096 82.0688 51.6999C82.0688 58.073 80.3468 62.7494 76.9027 65.7293C73.476 68.7091 67.988 70.1991 60.4388 70.1991H45.8536C45.1752 70.1991 44.5925 69.9751 44.1054 69.5273C43.6184 69.0622 43.3749 68.4938 43.3749 67.8221ZM53.2114 62.8872H60.1518C64.8309 62.8872 68.0141 62.0432 69.7014 60.3552C71.3886 58.6672 72.2323 55.7821 72.2323 51.6999C72.2323 47.6004 71.3886 44.7067 69.7014 43.0187C68.0141 41.3135 64.8309 40.4608 60.1518 40.4608H53.2114V62.8872Z" fill="white"/>
<path d="M124.609 66.3752C121.06 69.4584 115.842 71 108.954 71C102.083 71 96.8646 69.4584 93.2987 66.3752C89.7329 63.2748 87.9499 58.3744 87.9499 51.674C87.9499 44.9737 89.7329 40.0819 93.2987 36.9987C96.8646 33.9155 102.083 32.3739 108.954 32.3739C115.842 32.3739 121.06 33.9155 124.609 36.9987C128.175 40.0819 129.958 44.9737 129.958 51.674C129.958 58.3744 128.175 63.2748 124.609 66.3752ZM117.486 42.4503C115.729 40.3833 112.885 39.3499 108.954 39.3499C105.04 39.3499 102.196 40.3833 100.422 42.4503C98.6649 44.5172 97.7865 47.6004 97.7865 51.6999C97.7865 55.7821 98.6649 58.8567 100.422 60.9236C102.196 62.9734 105.04 63.9982 108.954 63.9982C112.885 63.9982 115.729 62.9734 117.486 60.9236C119.243 58.8567 120.121 55.7821 120.121 51.6999C120.121 47.6004 119.243 44.5172 117.486 42.4503Z" fill="white"/>
<path d="M176.855 69.0881C176.855 69.8287 176.411 70.1991 175.524 70.1991H169.262C168.601 70.1991 167.871 69.9665 167.07 69.5015C166.288 69.0192 165.688 68.4422 165.27 67.7704L160.834 60.8978C159.008 58.073 156.799 56.6606 154.207 56.6606H147.841V67.7704C147.841 68.4422 147.597 69.0192 147.11 69.5015C146.641 69.9665 146.067 70.1991 145.388 70.1991H140.483C139.805 70.1991 139.222 69.9665 138.735 69.5015C138.248 69.0192 138.004 68.4422 138.004 67.7704V35.6035C138.004 34.9318 138.239 34.3547 138.709 33.8725C139.178 33.3902 139.752 33.149 140.431 33.149H161.956C165.94 33.149 169.201 34.2083 171.741 36.327C174.298 38.4456 175.576 41.3049 175.576 44.9048C175.576 49.9171 172.297 53.0606 165.74 54.3352C166.783 54.7142 167.749 55.3687 168.636 56.2988C169.523 57.2117 170.541 58.5466 171.689 60.3035L176.437 67.7704C176.716 68.2527 176.855 68.6919 176.855 69.0881ZM147.841 49.3487H158.956C160.748 49.3487 162.322 48.9956 163.678 48.2894C165.053 47.5832 165.74 46.455 165.74 44.9048C165.74 43.3546 165.053 42.2264 163.678 41.5202C162.322 40.8139 160.748 40.4608 158.956 40.4608H147.841V49.3487Z" fill="white"/>
<path d="M218.403 66.3752C214.855 69.4584 209.636 71 202.748 71C195.877 71 190.659 69.4584 187.093 66.3752C183.527 63.2748 181.744 58.3744 181.744 51.674C181.744 44.9737 183.527 40.0819 187.093 36.9987C190.659 33.9155 195.877 32.3739 202.748 32.3739C209.636 32.3739 214.855 33.9155 218.403 36.9987C221.969 40.0819 223.752 44.9737 223.752 51.674C223.752 58.3744 221.969 63.2748 218.403 66.3752ZM211.28 42.4503C209.523 40.3833 206.679 39.3499 202.748 39.3499C198.834 39.3499 195.99 40.3833 194.216 42.4503C192.459 44.5172 191.581 47.6004 191.581 51.6999C191.581 55.7821 192.459 58.8567 194.216 60.9236C195.99 62.9734 198.834 63.9982 202.748 63.9982C206.679 63.9982 209.523 62.9734 211.28 60.9236C213.037 58.8567 213.915 55.7821 213.915 51.6999C213.915 47.6004 213.037 44.5172 211.28 42.4503Z" fill="white"/>
<path d="M227.989 35.3193C227.885 35.1126 227.833 34.8887 227.833 34.6476C227.833 34.3892 227.989 34.0791 228.302 33.7174C228.633 33.3385 229.094 33.149 229.685 33.149H235.399C236.756 33.149 237.791 33.9672 238.504 35.6035L248.602 57.8749L258.699 35.6035C259.412 33.9844 260.447 33.1662 261.804 33.149H267.518C268.127 33.149 268.588 33.3385 268.901 33.7174C269.214 34.0791 269.371 34.3892 269.371 34.6476C269.371 34.8887 269.327 35.1126 269.24 35.3193L254.211 67.5637C253.394 69.3206 252.15 70.1991 250.48 70.1991H246.723C245.053 70.1991 243.81 69.3206 242.992 67.5637L227.989 35.3193Z" fill="white"/>
<path d="M276.322 67.8221V35.6035C276.322 34.9318 276.565 34.3547 277.052 33.8725C277.539 33.3902 278.122 33.149 278.8 33.149H283.653C284.367 33.149 284.958 33.3902 285.428 33.8725C285.915 34.3547 286.158 34.9318 286.158 35.6035V67.7704C286.158 68.4422 285.906 69.0192 285.402 69.5015C284.914 69.9665 284.332 70.1991 283.653 70.1991H278.8C278.122 70.1991 277.539 69.9751 277.052 69.5273C276.565 69.0622 276.322 68.4938 276.322 67.8221Z" fill="white"/>
<path d="M296.318 67.7187V35.5518C296.318 34.8801 296.562 34.3117 297.049 33.8466C297.536 33.3815 298.119 33.149 298.797 33.149H328.881C329.559 33.149 330.133 33.3902 330.603 33.8725C331.09 34.3547 331.333 34.9318 331.333 35.6035V38.0322C331.333 38.7039 331.09 39.281 330.603 39.7633C330.133 40.2283 329.559 40.4608 328.881 40.4608H306.155V47.9794H325.724C326.402 47.9794 326.976 48.2205 327.446 48.7028C327.933 49.1679 328.176 49.7363 328.176 50.408V52.8367C328.176 53.5085 327.933 54.0855 327.446 54.5678C326.976 55.0328 326.402 55.2654 325.724 55.2654H306.155V62.8872H328.829C329.49 62.8872 330.055 63.1198 330.525 63.5848C330.994 64.0499 331.229 64.6183 331.229 65.2901V67.7704C331.229 68.4422 330.985 69.0192 330.498 69.5015C330.011 69.9665 329.429 70.1991 328.75 70.1991H298.797C298.119 70.1991 297.536 69.9665 297.049 69.5015C296.562 69.0192 296.318 68.4249 296.318 67.7187Z" fill="white"/>
</svg>
